<mxfile host="app.diagrams.net" agent="Mozilla/5.0 (Windows NT 10.0; Win64; x64) AppleWebKit/537.36 (KHTML, like Gecko) Chrome/141.0.0.0 Safari/537.36" version="28.2.4">
  <diagram name="Side-1" id="R_7WVyQi44Gcu4dqzlaR">
    <mxGraphModel dx="2195" dy="726" grid="1" gridSize="10" guides="1" tooltips="1" connect="1" arrows="1" fold="1" page="1" pageScale="1" pageWidth="827" pageHeight="1169" math="0" shadow="0">
      <root>
        <mxCell id="0" />
        <mxCell id="1" parent="0" />
        <mxCell id="ipQiABhfz1DdEVUP86N6-4" style="edgeStyle=orthogonalEdgeStyle;rounded=0;orthogonalLoop=1;jettySize=auto;html=1;" edge="1" parent="1" source="ipQiABhfz1DdEVUP86N6-2" target="ipQiABhfz1DdEVUP86N6-5">
          <mxGeometry relative="1" as="geometry">
            <mxPoint x="414" y="170" as="targetPoint" />
          </mxGeometry>
        </mxCell>
        <mxCell id="ipQiABhfz1DdEVUP86N6-2" value="Start" style="rounded=1;whiteSpace=wrap;html=1;" vertex="1" parent="1">
          <mxGeometry x="354" y="30" width="120" height="60" as="geometry" />
        </mxCell>
        <mxCell id="ipQiABhfz1DdEVUP86N6-6" value="Keep track of visited squares" style="edgeStyle=orthogonalEdgeStyle;rounded=0;orthogonalLoop=1;jettySize=auto;html=1;" edge="1" parent="1" source="ipQiABhfz1DdEVUP86N6-5" target="ipQiABhfz1DdEVUP86N6-7">
          <mxGeometry relative="1" as="geometry">
            <mxPoint x="414" y="260" as="targetPoint" />
          </mxGeometry>
        </mxCell>
        <mxCell id="ipQiABhfz1DdEVUP86N6-5" value="Set knights movement using array&lt;div&gt;&lt;br&gt;&lt;div&gt;const int MOVES_X[MOVE_COUNT] = {2, 1, -1, -2, -2, -1, 1, 2};&lt;/div&gt;&lt;div&gt;const int MOVES_Y[MOVE_COUNT] = {1, 2, 2, 1, -1, -2, -2, -1};&lt;/div&gt;&lt;div&gt;&lt;br&gt;&lt;/div&gt;&lt;/div&gt;" style="rounded=0;whiteSpace=wrap;html=1;" vertex="1" parent="1">
          <mxGeometry x="236" y="130" width="356" height="90" as="geometry" />
        </mxCell>
        <mxCell id="ipQiABhfz1DdEVUP86N6-8" value="count starting position as visited" style="edgeStyle=orthogonalEdgeStyle;rounded=0;orthogonalLoop=1;jettySize=auto;html=1;" edge="1" parent="1" source="ipQiABhfz1DdEVUP86N6-7" target="ipQiABhfz1DdEVUP86N6-9">
          <mxGeometry relative="1" as="geometry">
            <mxPoint x="414" y="390" as="targetPoint" />
            <mxPoint as="offset" />
          </mxGeometry>
        </mxCell>
        <mxCell id="ipQiABhfz1DdEVUP86N6-7" value="unsigned int tour_greedy(size_t start_x, size:t start_y) {&lt;br&gt;int visited[size][size] = {0}" style="rounded=0;whiteSpace=wrap;html=1;" vertex="1" parent="1">
          <mxGeometry x="251" y="290" width="326" height="60" as="geometry" />
        </mxCell>
        <mxCell id="ipQiABhfz1DdEVUP86N6-10" style="edgeStyle=orthogonalEdgeStyle;rounded=0;orthogonalLoop=1;jettySize=auto;html=1;" edge="1" parent="1" source="ipQiABhfz1DdEVUP86N6-9" target="ipQiABhfz1DdEVUP86N6-11">
          <mxGeometry relative="1" as="geometry">
            <mxPoint x="414" y="530" as="targetPoint" />
          </mxGeometry>
        </mxCell>
        <mxCell id="ipQiABhfz1DdEVUP86N6-12" value="mark starting square as visited" style="edgeLabel;html=1;align=center;verticalAlign=middle;resizable=0;points=[];" vertex="1" connectable="0" parent="ipQiABhfz1DdEVUP86N6-10">
          <mxGeometry x="-0.3455" relative="1" as="geometry">
            <mxPoint as="offset" />
          </mxGeometry>
        </mxCell>
        <mxCell id="ipQiABhfz1DdEVUP86N6-9" value="unsigned int count = 1;" style="rounded=0;whiteSpace=wrap;html=1;" vertex="1" parent="1">
          <mxGeometry x="346" y="420" width="136" height="60" as="geometry" />
        </mxCell>
        <mxCell id="ipQiABhfz1DdEVUP86N6-13" value="&lt;div&gt;Start main loop&lt;/div&gt;flag for move possibility" style="edgeStyle=orthogonalEdgeStyle;rounded=0;orthogonalLoop=1;jettySize=auto;html=1;" edge="1" parent="1" source="ipQiABhfz1DdEVUP86N6-11" target="ipQiABhfz1DdEVUP86N6-14">
          <mxGeometry relative="1" as="geometry">
            <mxPoint x="414" y="660" as="targetPoint" />
          </mxGeometry>
        </mxCell>
        <mxCell id="ipQiABhfz1DdEVUP86N6-11" value="Visited{cur_y}{cur_x} = 1" style="rounded=0;whiteSpace=wrap;html=1;" vertex="1" parent="1">
          <mxGeometry x="346" y="530" width="136" height="60" as="geometry" />
        </mxCell>
        <mxCell id="ipQiABhfz1DdEVUP86N6-15" value="Try all possible moves in order" style="edgeStyle=orthogonalEdgeStyle;rounded=0;orthogonalLoop=1;jettySize=auto;html=1;" edge="1" parent="1" source="ipQiABhfz1DdEVUP86N6-14" target="ipQiABhfz1DdEVUP86N6-16">
          <mxGeometry relative="1" as="geometry">
            <mxPoint x="414" y="830" as="targetPoint" />
          </mxGeometry>
        </mxCell>
        <mxCell id="ipQiABhfz1DdEVUP86N6-14" value="while (true) {&lt;br&gt;bool move_found = false" style="rounded=0;whiteSpace=wrap;html=1;" vertex="1" parent="1">
          <mxGeometry x="341" y="700" width="146" height="60" as="geometry" />
        </mxCell>
        <mxCell id="ipQiABhfz1DdEVUP86N6-17" value="If move found&lt;br&gt;Make first possible move" style="edgeStyle=orthogonalEdgeStyle;rounded=0;orthogonalLoop=1;jettySize=auto;html=1;" edge="1" parent="1" source="ipQiABhfz1DdEVUP86N6-16" target="ipQiABhfz1DdEVUP86N6-18">
          <mxGeometry x="0.668" relative="1" as="geometry">
            <mxPoint x="414" y="990" as="targetPoint" />
            <mxPoint as="offset" />
          </mxGeometry>
        </mxCell>
        <mxCell id="ipQiABhfz1DdEVUP86N6-24" style="edgeStyle=orthogonalEdgeStyle;rounded=0;orthogonalLoop=1;jettySize=auto;html=1;" edge="1" parent="1" source="ipQiABhfz1DdEVUP86N6-16" target="ipQiABhfz1DdEVUP86N6-25">
          <mxGeometry relative="1" as="geometry">
            <mxPoint x="680" y="920" as="targetPoint" />
          </mxGeometry>
        </mxCell>
        <mxCell id="ipQiABhfz1DdEVUP86N6-26" value="No further moves possible, exit loop" style="edgeLabel;html=1;align=center;verticalAlign=middle;resizable=0;points=[];" vertex="1" connectable="0" parent="ipQiABhfz1DdEVUP86N6-24">
          <mxGeometry x="0.4619" y="-2" relative="1" as="geometry">
            <mxPoint x="2" y="-17" as="offset" />
          </mxGeometry>
        </mxCell>
        <mxCell id="ipQiABhfz1DdEVUP86N6-16" value="for (size_t move_id = 0; ,pve_id &amp;lt; MOVE_COUNT; ++move_id) {&lt;br&gt;&lt;div&gt;&lt;br&gt;&lt;/div&gt;" style="rounded=0;whiteSpace=wrap;html=1;" vertex="1" parent="1">
          <mxGeometry x="271" y="830" width="286" height="60" as="geometry" />
        </mxCell>
        <mxCell id="ipQiABhfz1DdEVUP86N6-19" style="edgeStyle=orthogonalEdgeStyle;rounded=0;orthogonalLoop=1;jettySize=auto;html=1;" edge="1" parent="1" source="ipQiABhfz1DdEVUP86N6-18" target="ipQiABhfz1DdEVUP86N6-20">
          <mxGeometry relative="1" as="geometry">
            <mxPoint x="148" y="1060" as="targetPoint" />
          </mxGeometry>
        </mxCell>
        <mxCell id="ipQiABhfz1DdEVUP86N6-21" value="Mark new square as visited" style="edgeLabel;html=1;align=center;verticalAlign=middle;resizable=0;points=[];" vertex="1" connectable="0" parent="ipQiABhfz1DdEVUP86N6-19">
          <mxGeometry x="-0.1527" y="-2" relative="1" as="geometry">
            <mxPoint as="offset" />
          </mxGeometry>
        </mxCell>
        <mxCell id="ipQiABhfz1DdEVUP86N6-18" value="if (move_is_possible(move_id, cur_x,cur_y, visited)) {&lt;br&gt;cur_x += MOVES_X[move_id];&lt;br&gt;cur_y += MOVES_Y[move_id];" style="rounded=0;whiteSpace=wrap;html=1;" vertex="1" parent="1">
          <mxGeometry x="-40" y="940" width="300" height="60" as="geometry" />
        </mxCell>
        <mxCell id="ipQiABhfz1DdEVUP86N6-27" value="restart loop" style="edgeStyle=orthogonalEdgeStyle;rounded=0;orthogonalLoop=1;jettySize=auto;html=1;" edge="1" parent="1" source="ipQiABhfz1DdEVUP86N6-20" target="ipQiABhfz1DdEVUP86N6-28">
          <mxGeometry x="0.025" relative="1" as="geometry">
            <mxPoint x="110" y="1160" as="targetPoint" />
            <mxPoint as="offset" />
          </mxGeometry>
        </mxCell>
        <mxCell id="ipQiABhfz1DdEVUP86N6-20" value="visited[cur_y][cur_x] = 1&lt;br&gt;count++;" style="rounded=0;whiteSpace=wrap;html=1;" vertex="1" parent="1">
          <mxGeometry x="50" y="1050" width="120" height="60" as="geometry" />
        </mxCell>
        <mxCell id="ipQiABhfz1DdEVUP86N6-30" value="How many squares were visited" style="edgeStyle=orthogonalEdgeStyle;rounded=0;orthogonalLoop=1;jettySize=auto;html=1;" edge="1" parent="1" source="ipQiABhfz1DdEVUP86N6-25" target="ipQiABhfz1DdEVUP86N6-31">
          <mxGeometry relative="1" as="geometry">
            <mxPoint x="414" y="1050" as="targetPoint" />
          </mxGeometry>
        </mxCell>
        <mxCell id="ipQiABhfz1DdEVUP86N6-25" value="if (!move_found) {&lt;br&gt;break;&lt;br&gt;}&lt;br&gt;}" style="rounded=0;whiteSpace=wrap;html=1;" vertex="1" parent="1">
          <mxGeometry x="354" y="940" width="120" height="60" as="geometry" />
        </mxCell>
        <mxCell id="ipQiABhfz1DdEVUP86N6-29" style="edgeStyle=orthogonalEdgeStyle;rounded=0;orthogonalLoop=1;jettySize=auto;html=1;entryX=0;entryY=0.25;entryDx=0;entryDy=0;" edge="1" parent="1" source="ipQiABhfz1DdEVUP86N6-28" target="ipQiABhfz1DdEVUP86N6-16">
          <mxGeometry relative="1" as="geometry">
            <Array as="points">
              <mxPoint x="-60" y="1190" />
              <mxPoint x="-60" y="845" />
            </Array>
          </mxGeometry>
        </mxCell>
        <mxCell id="ipQiABhfz1DdEVUP86N6-28" value="move_found = true;&lt;br&gt;break;&lt;br&gt;}" style="rounded=0;whiteSpace=wrap;html=1;" vertex="1" parent="1">
          <mxGeometry x="50" y="1160" width="120" height="60" as="geometry" />
        </mxCell>
        <mxCell id="ipQiABhfz1DdEVUP86N6-33" value="Print number of prisited squares" style="edgeStyle=orthogonalEdgeStyle;rounded=0;orthogonalLoop=1;jettySize=auto;html=1;" edge="1" parent="1" source="ipQiABhfz1DdEVUP86N6-31" target="ipQiABhfz1DdEVUP86N6-34">
          <mxGeometry relative="1" as="geometry">
            <mxPoint x="414" y="1170" as="targetPoint" />
          </mxGeometry>
        </mxCell>
        <mxCell id="ipQiABhfz1DdEVUP86N6-31" value="return count;" style="rounded=0;whiteSpace=wrap;html=1;" vertex="1" parent="1">
          <mxGeometry x="354" y="1060" width="120" height="60" as="geometry" />
        </mxCell>
        <mxCell id="ipQiABhfz1DdEVUP86N6-36" style="edgeStyle=orthogonalEdgeStyle;rounded=0;orthogonalLoop=1;jettySize=auto;html=1;" edge="1" parent="1" source="ipQiABhfz1DdEVUP86N6-34" target="ipQiABhfz1DdEVUP86N6-37">
          <mxGeometry relative="1" as="geometry">
            <mxPoint x="414" y="1360" as="targetPoint" />
          </mxGeometry>
        </mxCell>
        <mxCell id="ipQiABhfz1DdEVUP86N6-34" value="void print_boar(board_t visited) {&lt;br&gt;for (int y=0; y &amp;lt; SIZE; ++y) {&lt;br&gt;for int x = 0; x &amp;lt; SIZE; ++x) {&lt;br&gt;printf(&quot;%2d &quot;, visited[y][x]);&lt;br&gt;}&lt;br&gt;printf(&quot;\n&quot;);&lt;br&gt;}&lt;br&gt;}" style="rounded=0;whiteSpace=wrap;html=1;" vertex="1" parent="1">
          <mxGeometry x="306" y="1169" width="216" height="130" as="geometry" />
        </mxCell>
        <mxCell id="ipQiABhfz1DdEVUP86N6-37" value="End" style="rounded=1;whiteSpace=wrap;html=1;" vertex="1" parent="1">
          <mxGeometry x="354" y="1330" width="120" height="60" as="geometry" />
        </mxCell>
      </root>
    </mxGraphModel>
  </diagram>
</mxfile>
